<svg width="22" height="17" viewBox="0 0 22 17" fill="none" xmlns="http://www.w3.org/2000/svg">
<path d="M20.3711 2.87494L1.63048 2.87494C1.28564 2.87494 1.00582 2.45491 1.00584 1.93747C1.00587 1.41995 1.28577 1 1.63056 1L20.3712 1C20.716 1 20.9958 1.42003 20.9958 1.93747C20.9958 2.45491 20.7159 2.87494 20.3711 2.87494Z" fill="#303030" stroke="white" stroke-width="0.2"/>
<path d="M1.63056 7.5625L20.3712 7.5625C20.716 7.5625 20.9958 7.98253 20.9958 8.49997C20.9958 9.0174 20.7159 9.43743 20.3711 9.43743L1.63048 9.43743C1.28564 9.43743 1.00583 9.0174 1.00585 8.49997C1.00587 7.98253 1.28572 7.5625 1.63056 7.5625Z" fill="#303030" stroke="white" stroke-width="0.2"/>
<path d="M1.63081 14.125L14.1244 14.125C14.4692 14.125 14.7489 14.545 14.7487 15.0625C14.7485 15.58 14.4685 15.9999 14.1237 15.9999L1.63011 15.9999C1.28528 15.9999 1.00561 15.5799 1.0058 15.0625C1.00594 14.545 1.28597 14.125 1.63081 14.125Z" fill="#303030" stroke="white" stroke-width="0.2"/>
</svg>
